<?xml version="1.0" encoding="UTF-8"?>
<svg xmlns="http://www.w3.org/2000/svg" width="500" height="500" viewBox="0 0 500 500" fill="none">
  <path d="M85.6123 298.265C81.0869 282.428 78.8242 266.591 78.8242 250C78.8242 176.094 125.587 108.221 194.976 81.0713L204.027 104.45C144.442 127.828 103.714 185.898 103.714 250C103.714 264.329 105.222 277.903 108.994 291.478L85.6123 298.265Z" fill="#69D3A7"></path>
  <path d="M399.373 178.356C372.221 126.32 318.67 93.8917 260.594 93.8917C240.23 93.8917 219.866 97.6624 201.01 105.958L191.205 82.5795C213.078 73.5298 236.459 69.0049 260.594 69.0049C328.475 69.0049 390.323 106.712 422 166.29L399.373 178.356Z" fill="url(#paint0_linear_231_260)"></path>
  <path d="M206.289 212.293C220.62 212.293 232.687 219.835 238.721 233.409L239.475 234.164L264.365 225.868L263.611 224.36C253.806 200.981 231.933 186.652 206.289 186.652C188.188 186.652 173.103 192.686 161.035 204.752C148.967 216.818 142.934 231.901 142.934 249.246C142.934 266.592 148.967 281.675 161.035 293.741C173.103 305.807 188.188 311.841 206.289 311.841C231.933 311.841 253.806 297.512 263.611 274.133L264.365 272.625L239.475 264.329L238.721 265.084C233.442 278.658 221.374 286.2 206.289 286.2C195.73 286.2 187.433 282.429 180.645 275.642C173.857 268.854 170.086 259.804 170.086 249.246C170.086 238.688 173.857 229.639 180.645 222.097C187.433 216.064 195.73 212.293 206.289 212.293Z" fill="#9F9F9F"></path>
  <path d="M360.153 190.422L325.458 279.411L290.009 190.422H261.349L311.128 311.839L274.925 396.304L299.814 401.583L386.551 190.422H360.153Z" fill="#9F9F9F"></path>
  <path d="M279.45 385.746L273.416 400.829C271.908 403.845 269.645 406.108 266.628 406.108C264.365 406.108 262.103 406.108 260.594 406.108C188.188 406.108 124.078 354.826 108.239 284.69L83.3496 289.969C92.4004 329.185 114.273 365.384 145.951 391.025C178.383 416.666 218.357 430.995 259.84 430.995C262.103 430.995 264.365 430.995 267.382 430.995C280.204 430.241 292.272 422.699 296.797 410.633L305.094 391.025L279.45 385.746Z" fill="url(#paint1_linear_231_260)"></path>
  <defs>
    <linearGradient id="paint0_linear_231_260" x1="241.493" y1="57.2515" x2="379.236" y2="204.489" gradientUnits="userSpaceOnUse">
      <stop offset="0.0939" stop-color="#58D09E"></stop>
      <stop offset="0.9883" stop-color="#58D09E" stop-opacity="0"></stop>
    </linearGradient>
    <linearGradient id="paint1_linear_231_260" x1="76.9002" y1="332.325" x2="340.082" y2="402.383" gradientUnits="userSpaceOnUse">
      <stop offset="0.0774" stop-color="#58D09E"></stop>
      <stop offset="0.7617" stop-color="#9F9F9F"></stop>
    </linearGradient>
  </defs>
</svg>
